<svg width="160" height="160" viewBox="0 0 160 160" fill="none" xmlns="http://www.w3.org/2000/svg">
<g clip-path="url(#clip0_703_33441)">
<rect width="160" height="160" rx="80" fill="#F2F3FF"/>
<rect opacity="0.8" x="54.2461" y="32" width="95" height="91" rx="10.6667" transform="rotate(9.96425 54.2461 32)" fill="url(#paint0_linear_703_33441)"/>
<rect opacity="0.8" width="95" height="91" rx="10.6667" transform="matrix(-0.984916 0.173034 0.173034 0.984916 103.067 32)" fill="url(#paint1_linear_703_33441)"/>
<g filter="url(#filter0_d_703_33441)">
<rect x="32.5" y="34" width="95" height="91" rx="10.6667" fill="white"/>
</g>
<rect x="42.5" y="42" width="76" height="25" rx="6.66667" fill="#ECEDF8"/>
<rect x="59.5" y="75" width="42" height="9" rx="4.5" fill="#ECEDF8"/>
<circle cx="80.5" cy="118" r="22.6667" fill="url(#paint2_linear_703_33441)" stroke="url(#paint3_linear_703_33441)" stroke-width="2.66667"/>
<path d="M78.4998 124.667H69.8332V122H78.4998C81.0772 122 83.1665 124.089 83.1665 126.667C83.1665 129.244 81.0772 131.333 78.4998 131.333C76.4993 131.333 74.7927 130.075 74.1291 128.306L76.6267 127.369C76.9111 128.127 77.6425 128.667 78.4998 128.667C79.6044 128.667 80.4998 127.771 80.4998 126.667C80.4998 125.562 79.6044 124.667 78.4998 124.667ZM71.1665 116.667H89.1665C91.7438 116.667 93.8332 118.756 93.8332 121.333C93.8332 123.911 91.7438 126 89.1665 126C87.166 126 85.4594 124.741 84.7958 122.972L87.2933 122.036C87.5777 122.794 88.3092 123.333 89.1665 123.333C90.271 123.333 91.1665 122.438 91.1665 121.333C91.1665 120.229 90.271 119.333 89.1665 119.333H71.1665C68.9574 119.333 67.1665 117.543 67.1665 115.333C67.1665 113.124 68.9574 111.333 71.1665 111.333H82.4998C83.6044 111.333 84.4998 110.438 84.4998 109.333C84.4998 108.229 83.6044 107.333 82.4998 107.333C81.6425 107.333 80.911 107.873 80.6266 108.631L78.1292 107.694C78.7928 105.926 80.4993 104.667 82.4998 104.667C85.0772 104.667 87.1665 106.756 87.1665 109.333C87.1665 111.911 85.0772 114 82.4998 114H71.1665C70.4301 114 69.8332 114.597 69.8332 115.333C69.8332 116.07 70.4301 116.667 71.1665 116.667Z" fill="white"/>
</g>
<defs>
<filter id="filter0_d_703_33441" x="-47.5" y="-30" width="255" height="251" filterUnits="userSpaceOnUse" color-interpolation-filters="sRGB">
<feFlood flood-opacity="0" result="BackgroundImageFix"/>
<feColorMatrix in="SourceAlpha" type="matrix" values="0 0 0 0 0 0 0 0 0 0 0 0 0 0 0 0 0 0 127 0" result="hardAlpha"/>
<feOffset dy="16"/>
<feGaussianBlur stdDeviation="40"/>
<feComposite in2="hardAlpha" operator="out"/>
<feColorMatrix type="matrix" values="0 0 0 0 0.262745 0 0 0 0 0.278431 0 0 0 0 0.301961 0 0 0 0.14 0"/>
<feBlend mode="normal" in2="BackgroundImageFix" result="effect1_dropShadow_703_33441"/>
<feBlend mode="normal" in="SourceGraphic" in2="effect1_dropShadow_703_33441" result="shape"/>
</filter>
<linearGradient id="paint0_linear_703_33441" x1="101.746" y1="32" x2="101.746" y2="123" gradientUnits="userSpaceOnUse">
<stop stop-color="white"/>
<stop offset="1" stop-color="white" stop-opacity="0"/>
</linearGradient>
<linearGradient id="paint1_linear_703_33441" x1="47.5" y1="0" x2="47.5" y2="91" gradientUnits="userSpaceOnUse">
<stop stop-color="white"/>
<stop offset="1" stop-color="white" stop-opacity="0"/>
</linearGradient>
<linearGradient id="paint2_linear_703_33441" x1="80.5" y1="94" x2="80.5" y2="142" gradientUnits="userSpaceOnUse">
<stop stop-color="#2970FF"/>
<stop offset="0.434782" stop-color="#528BFF"/>
<stop offset="1" stop-color="#84ADFF"/>
</linearGradient>
<linearGradient id="paint3_linear_703_33441" x1="80.5" y1="66.6667" x2="80.5" y2="142" gradientUnits="userSpaceOnUse">
<stop stop-color="white"/>
<stop offset="1" stop-color="white" stop-opacity="0"/>
</linearGradient>
<clipPath id="clip0_703_33441">
<rect width="160" height="160" rx="80" fill="white"/>
</clipPath>
</defs>
</svg>
