<svg xmlns="http://www.w3.org/2000/svg" viewBox="0 0 24 24" width="24" height="24" color="currentColor" fill="none">
    <path d="M12 2.25C12.6865 2.25 13.2579 2.24903 13.7188 2.2959C14.1922 2.34406 14.6314 2.44934 15.0273 2.71387C15.3276 2.9145 15.5855 3.17238 15.7861 3.47266C16.0507 3.86862 16.1559 4.30783 16.2041 4.78125C16.2328 5.06339 16.2411 5.38694 16.2451 5.75293C17.3075 5.75969 18.2 5.78509 18.9414 5.88477C19.9773 6.02408 20.8308 6.31926 21.5059 6.99414C22.1809 7.66909 22.4767 8.5226 22.6162 9.55859C22.7528 10.5731 22.7507 11.8706 22.751 13.499V13.999C22.7513 15.628 22.7535 16.9256 22.6172 17.9404C22.478 18.9767 22.1819 19.8297 21.5068 20.5049C20.8317 21.1801 19.9787 21.4759 18.9424 21.6152C17.9275 21.7517 16.63 21.75 15.001 21.75H9C7.37135 21.75 6.07423 21.7517 5.05957 21.6152C4.02333 21.4759 3.17024 21.18 2.49512 20.5049C1.82 19.8297 1.52408 18.9767 1.38477 17.9404C1.24835 16.9258 1.25 15.6287 1.25 14V13.5C1.25 11.8713 1.24834 10.5743 1.38477 9.55957C1.52409 8.52332 1.81999 7.67025 2.49512 6.99512C3.17025 6.31999 4.02333 6.02409 5.05957 5.88477C5.80066 5.78513 6.69237 5.7597 7.75391 5.75293C7.75794 5.38693 7.76721 5.06339 7.7959 4.78125C7.84406 4.30783 7.94934 3.86862 8.21387 3.47266C8.4145 3.17238 8.67238 2.9145 8.97266 2.71387C9.36862 2.44934 9.80783 2.34406 10.2812 2.2959C10.7421 2.24903 11.3135 2.25 12 2.25ZM9 7.25C7.32908 7.25 6.15123 7.25128 5.25977 7.37109C4.38984 7.48805 3.90565 7.70568 3.55566 8.05566C3.20568 8.40565 2.98805 8.88984 2.87109 9.75977C2.75128 10.6512 2.75 11.8291 2.75 13.5V14C2.75 15.6708 2.75129 16.8488 2.87109 17.7402C2.98805 18.6101 3.20569 19.0944 3.55566 19.4443C3.90564 19.7943 4.38985 20.0119 5.25977 20.1289C6.15121 20.2487 7.32915 20.25 9 20.25H15.001C16.6723 20.25 17.8505 20.2488 18.7422 20.1289C19.6123 20.0119 20.0963 19.7944 20.4463 19.4443C20.7962 19.0943 21.014 18.6103 21.1309 17.7402C21.2506 16.8486 21.2513 15.6703 21.251 13.999V13.499C21.2507 11.8282 21.2489 10.6501 21.1289 9.75879C21.0119 8.88946 20.7951 8.40552 20.4453 8.05566C20.0953 7.70575 19.611 7.48803 18.7412 7.37109C17.8498 7.25126 16.6718 7.25 15.001 7.25H9ZM18 9.75C18.4142 9.75 18.75 10.0858 18.75 10.5C18.75 10.9142 18.4142 11.25 18 11.25H6C5.58579 11.25 5.25 10.9142 5.25 10.5C5.25 10.0858 5.58579 9.75 6 9.75H18ZM12 3.75C11.2822 3.75 10.8 3.75071 10.4326 3.78809C10.0779 3.82419 9.9141 3.88849 9.80566 3.96094C9.66921 4.05212 9.55212 4.16921 9.46094 4.30566C9.38849 4.4141 9.32419 4.57788 9.28809 4.93262C9.26552 5.1544 9.25766 5.418 9.25391 5.75H14.7461C14.7423 5.418 14.7345 5.1544 14.7119 4.93262C14.6758 4.57788 14.6115 4.4141 14.5391 4.30566C14.4479 4.16921 14.3308 4.05212 14.1943 3.96094C14.0859 3.88849 13.9221 3.82419 13.5674 3.78809C13.2 3.75071 12.7178 3.75 12 3.75Z" fill="currentColor" />
</svg>